<svg preserveAspectRatio="none" width="100%" height="100%" overflow="visible" style="display: block;" viewBox="0 0 14 14" fill="none" xmlns="http://www.w3.org/2000/svg">
<g id="Frame">
<path id="Vector" d="M5.70445 11.6667C5.80197 11.8356 5.94223 11.9758 6.11114 12.0733C6.28004 12.1708 6.47164 12.2222 6.66667 12.2222C6.8617 12.2222 7.0533 12.1708 7.2222 12.0733C7.39111 11.9758 7.53137 11.8356 7.62889 11.6667" stroke="var(--stroke-0, #F2F3F8)" stroke-width="1.11111" stroke-linecap="round" stroke-linejoin="round"/>
<path id="Vector_2" d="M1.81224 8.51445C1.73967 8.594 1.69177 8.69292 1.67439 8.79919C1.657 8.90545 1.67087 9.01448 1.7143 9.11301C1.75774 9.21154 1.82887 9.29532 1.91905 9.35416C2.00923 9.413 2.11457 9.44437 2.22224 9.44445H11.1111C11.2188 9.44449 11.3242 9.41324 11.4144 9.35451C11.5046 9.29578 11.5759 9.21209 11.6194 9.11363C11.663 9.01516 11.677 8.90617 11.6597 8.79989C11.6425 8.69362 11.5947 8.59464 11.5222 8.51501C10.7834 7.75334 10 6.9439 10 4.44445C10 3.5604 9.64883 2.71255 9.02371 2.08743C8.39859 1.46231 7.55074 1.11112 6.66669 1.11112C5.78263 1.11112 4.93479 1.46231 4.30967 2.08743C3.68454 2.71255 3.33335 3.5604 3.33335 4.44445C3.33335 6.9439 2.54947 7.75334 1.81224 8.51445Z" stroke="var(--stroke-0, #F2F3F8)" stroke-width="1.11111" stroke-linecap="round" stroke-linejoin="round"/>
</g>
</svg>
