<svg preserveAspectRatio="none" width="100%" height="100%" overflow="visible" style="display: block;" viewBox="0 0 16 16" fill="none" xmlns="http://www.w3.org/2000/svg">
<g id="Frame">
<path id="Vector" d="M12 5.33333C13.1046 5.33333 14 4.4379 14 3.33333C14 2.22876 13.1046 1.33333 12 1.33333C10.8954 1.33333 10 2.22876 10 3.33333C10 4.4379 10.8954 5.33333 12 5.33333Z" stroke="var(--stroke-0, #B4BBCB)" stroke-width="1.33333" stroke-linecap="round" stroke-linejoin="round"/>
<path id="Vector_2" d="M4 10C5.10457 10 6 9.10457 6 8C6 6.89543 5.10457 6 4 6C2.89543 6 2 6.89543 2 8C2 9.10457 2.89543 10 4 10Z" stroke="var(--stroke-0, #B4BBCB)" stroke-width="1.33333" stroke-linecap="round" stroke-linejoin="round"/>
<path id="Vector_3" d="M12 14.6667C13.1046 14.6667 14 13.7712 14 12.6667C14 11.5621 13.1046 10.6667 12 10.6667C10.8954 10.6667 10 11.5621 10 12.6667C10 13.7712 10.8954 14.6667 12 14.6667Z" stroke="var(--stroke-0, #B4BBCB)" stroke-width="1.33333" stroke-linecap="round" stroke-linejoin="round"/>
<path id="Vector_4" d="M5.72673 9.00667L10.2801 11.66" stroke="var(--stroke-0, #B4BBCB)" stroke-width="1.33333" stroke-linecap="round" stroke-linejoin="round"/>
<path id="Vector_5" d="M10.2734 4.34001L5.72673 6.99334" stroke="var(--stroke-0, #B4BBCB)" stroke-width="1.33333" stroke-linecap="round" stroke-linejoin="round"/>
</g>
</svg>
