<svg width="22" height="22" viewBox="0 0 22 22" fill="none" xmlns="http://www.w3.org/2000/svg">
<path d="M13.75 16.5H9.16663" stroke="#0078FF" stroke-width="1.33" stroke-linecap="round" stroke-linejoin="round"/>
<path d="M16.5 12.8333H9.16663" stroke="#0078FF" stroke-width="1.33" stroke-linecap="round" stroke-linejoin="round"/>
<path d="M3.66671 20.1666H18.3334C18.8196 20.1666 19.2859 19.9735 19.6297 19.6297C19.9736 19.2859 20.1667 18.8195 20.1667 18.3333V3.66665C20.1667 3.18042 19.9736 2.7141 19.6297 2.37028C19.2859 2.02647 18.8196 1.83331 18.3334 1.83331H7.33337C6.84714 1.83331 6.38083 2.02647 6.03701 2.37028C5.69319 2.7141 5.50004 3.18042 5.50004 3.66665V18.3333C5.50004 18.8195 5.30689 19.2859 4.96307 19.6297C4.61925 19.9735 4.15294 20.1666 3.66671 20.1666ZM3.66671 20.1666C3.18048 20.1666 2.71416 19.9735 2.37034 19.6297C2.02653 19.2859 1.83337 18.8195 1.83337 18.3333V10.0833C1.83337 9.59708 2.02653 9.13077 2.37034 8.78695C2.71416 8.44313 3.18048 8.24998 3.66671 8.24998H5.50004" stroke="#0078FF" stroke-width="1.33" stroke-linecap="round" stroke-linejoin="round"/>
<path d="M15.5833 5.5H10.0833C9.57703 5.5 9.16663 5.91041 9.16663 6.41667V8.25C9.16663 8.75626 9.57703 9.16667 10.0833 9.16667H15.5833C16.0896 9.16667 16.5 8.75626 16.5 8.25V6.41667C16.5 5.91041 16.0896 5.5 15.5833 5.5Z" stroke="#0078FF" stroke-width="1.33" stroke-linecap="round" stroke-linejoin="round"/>
</svg>
