<svg width="22" height="22" viewBox="0 0 22 22" fill="none" xmlns="http://www.w3.org/2000/svg">
<path d="M9.16663 7.79163H12.8333" stroke="#9E70FA" stroke-width="1.33" stroke-linecap="round" stroke-linejoin="round"/>
<path d="M11 5.5V11.9167" stroke="#9E70FA" stroke-width="1.33" stroke-linecap="round" stroke-linejoin="round"/>
<path d="M3.66663 17.875V4.12498C3.66663 3.51719 3.90807 2.9343 4.33784 2.50453C4.76761 2.07476 5.3505 1.83331 5.95829 1.83331H17.4166C17.6597 1.83331 17.8929 1.92989 18.0648 2.1018C18.2367 2.27371 18.3333 2.50686 18.3333 2.74998V19.25C18.3333 19.4931 18.2367 19.7263 18.0648 19.8982C17.8929 20.0701 17.6597 20.1666 17.4166 20.1666H5.95829C5.3505 20.1666 4.76761 19.9252 4.33784 19.4954C3.90807 19.0657 3.66663 18.4828 3.66663 17.875ZM3.66663 17.875C3.66663 17.2672 3.90807 16.6843 4.33784 16.2545C4.76761 15.8248 5.3505 15.5833 5.95829 15.5833H18.3333" stroke="#9E70FA" stroke-width="1.33" stroke-linecap="round" stroke-linejoin="round"/>
</svg>