<svg preserveAspectRatio="none" width="100%" height="100%" overflow="visible" style="display: block;" viewBox="0 0 66 12" fill="none" xmlns="http://www.w3.org/2000/svg">
<g id="Right Side">
<g id="Battery">
<path id="Rectangle" opacity="0.35" d="M44.482 0.503906H60.8794C62.076 0.503906 63.0464 1.47428 63.0464 2.6709V8.6709C63.0462 9.86737 62.0759 10.8369 60.8794 10.8369H44.482C43.2854 10.8369 42.3151 9.86737 42.315 8.6709V2.6709C42.315 1.47428 43.2853 0.503906 44.482 0.503906Z" stroke="var(--stroke-0, #111111)"/>
<path id="Combined Shape" opacity="0.4" d="M64.534 3.67188V7.67188C65.3289 7.3331 65.8458 6.54501 65.8458 5.67188C65.8458 4.79874 65.3289 4.01065 64.534 3.67188" fill="var(--fill-0, #111111)"/>
<path id="Rectangle_2" d="M43.7905 3.10391C43.7905 2.49639 44.283 2.00391 44.8905 2.00391H60.4707C61.0782 2.00391 61.5707 2.49639 61.5707 3.10391V8.23724C61.5707 8.84475 61.0782 9.33724 60.4707 9.33724H44.8905C44.283 9.33724 43.7905 8.84475 43.7905 8.23724V3.10391Z" fill="var(--fill-0, #111111)"/>
</g>
<path id="Wifi" fill-rule="evenodd" clip-rule="evenodd" d="M29.3016 2.27733C31.4904 2.27742 33.5956 3.12886 35.1819 4.65566C35.3013 4.77354 35.4923 4.77205 35.6099 4.65233L36.7518 3.48566C36.8114 3.42494 36.8446 3.34269 36.8441 3.25711C36.8436 3.17153 36.8094 3.08967 36.7492 3.02966C32.5856 -1.00989 26.017 -1.00989 21.8534 3.02966C21.7931 3.08963 21.7588 3.17146 21.7583 3.25704C21.7577 3.34262 21.7909 3.42489 21.8504 3.48566L22.9926 4.65233C23.1102 4.77223 23.3013 4.77372 23.4207 4.65566C25.0072 3.12876 27.1126 2.27732 29.3016 2.27733ZM29.3016 6.07299C30.5042 6.07292 31.6639 6.52545 32.5554 7.34266C32.6759 7.45864 32.8659 7.45613 32.9834 7.33699L34.124 6.17033C34.184 6.10913 34.2174 6.02612 34.2165 5.93985C34.2156 5.85359 34.1806 5.77127 34.1194 5.71133C31.4047 3.15494 27.2008 3.15494 24.4861 5.71133C24.4248 5.77127 24.3898 5.85363 24.389 5.93992C24.3882 6.02621 24.4217 6.10922 24.4819 6.17033L25.6221 7.33699C25.7396 7.45613 25.9296 7.45864 26.0501 7.34266C26.941 6.52599 28.0998 6.0735 29.3016 6.07299ZM31.5863 8.62681C31.5881 8.71332 31.5545 8.79672 31.4935 8.85733L29.5206 10.873C29.4627 10.9322 29.3839 10.9656 29.3016 10.9656C29.2193 10.9656 29.1405 10.9322 29.0826 10.873L27.1094 8.85733C27.0484 8.79668 27.0149 8.71325 27.0167 8.62674C27.0185 8.54023 27.0555 8.45831 27.1189 8.40033C28.3789 7.32144 30.2243 7.32144 31.4843 8.40033C31.5477 8.45836 31.5846 8.54031 31.5863 8.62681Z" fill="var(--fill-0, #111111)"/>
<path id="Mobile Signal" fill-rule="evenodd" clip-rule="evenodd" d="M15.8046 0.335938H14.8168C14.2712 0.335938 13.829 0.783653 13.829 1.33594V10.0026C13.829 10.5549 14.2712 11.0026 14.8168 11.0026H15.8046C16.3501 11.0026 16.7923 10.5549 16.7923 10.0026V1.33594C16.7923 0.783653 16.3501 0.335938 15.8046 0.335938ZM10.2071 2.66927H11.1949C11.7404 2.66927 12.1827 3.11699 12.1827 3.66927V10.0026C12.1827 10.5549 11.7404 11.0026 11.1949 11.0026H10.2071C9.66157 11.0026 9.21933 10.5549 9.21933 10.0026V3.66927C9.21933 3.11699 9.66157 2.66927 10.2071 2.66927ZM6.58523 5.0026H5.59745C5.05191 5.0026 4.60966 5.45032 4.60966 6.0026V10.0026C4.60966 10.5549 5.05191 11.0026 5.59745 11.0026H6.58523C7.13077 11.0026 7.57302 10.5549 7.57302 10.0026V6.0026C7.57302 5.45032 7.13077 5.0026 6.58523 5.0026ZM1.97557 7.0026H0.987785C0.442246 7.0026 0 7.45032 0 8.0026V10.0026C0 10.5549 0.442246 11.0026 0.987785 11.0026H1.97557C2.52111 11.0026 2.96336 10.5549 2.96336 10.0026V8.0026C2.96336 7.45032 2.52111 7.0026 1.97557 7.0026Z" fill="var(--fill-0, #111111)"/>
</g>
</svg>
