<svg width="24" height="24" viewBox="0 0 24 24" fill="none" xmlns="http://www.w3.org/2000/svg">
<path d="M10 9H14" stroke="black" stroke-width="1.5" stroke-linecap="round" stroke-linejoin="round"/>
<path d="M12 7V12" stroke="black" stroke-width="1.5" stroke-linecap="round" stroke-linejoin="round"/>
<path d="M14 22V18C14 17.4696 13.7893 16.9609 13.4142 16.5858C13.0391 16.2107 12.5304 16 12 16C11.4696 16 10.9609 16.2107 10.5858 16.5858C10.2107 16.9609 10 17.4696 10 18V22" stroke="black" stroke-width="1.5" stroke-linecap="round" stroke-linejoin="round"/>
<path d="M18 22V5.618C17.9999 5.43234 17.9481 5.25037 17.8504 5.09247C17.7528 4.93458 17.6131 4.80699 17.447 4.724L12.894 2.447C12.6164 2.30828 12.3103 2.23607 12 2.23607C11.6897 2.23607 11.3836 2.30828 11.106 2.447L6.553 4.724C6.38692 4.80699 6.24722 4.93458 6.14955 5.09247C6.05188 5.25037 6.0001 5.43234 6 5.618V22" stroke="black" stroke-width="1.5" stroke-linecap="round" stroke-linejoin="round"/>
<path d="M18 7L21.447 8.724C21.6131 8.80699 21.7528 8.93458 21.8504 9.09247C21.9481 9.25037 21.9999 9.43234 22 9.618V20C22 20.5304 21.7893 21.0391 21.4142 21.4142C21.0391 21.7893 20.5304 22 20 22H4C3.46957 22 2.96086 21.7893 2.58579 21.4142C2.21071 21.0391 2 20.5304 2 20V9.618C2.0001 9.43234 2.05188 9.25037 2.14955 9.09247C2.24722 8.93458 2.38692 8.80699 2.553 8.724L6 7" stroke="black" stroke-width="1.5" stroke-linecap="round" stroke-linejoin="round"/>
</svg>
