<svg width="22" height="22" viewBox="0 0 22 22" fill="none" xmlns="http://www.w3.org/2000/svg">
<path d="M5.50004 12.8333L6.87504 10.175C7.02452 9.87809 7.2519 9.62745 7.53285 9.44983C7.8138 9.27222 8.13775 9.17433 8.47004 9.16663H18.3334M18.3334 9.16663C18.6134 9.16614 18.8899 9.22982 19.1415 9.35279C19.3932 9.47576 19.6133 9.65475 19.785 9.87601C19.9567 10.0973 20.0754 10.3549 20.132 10.6292C20.1887 10.9035 20.1817 11.1871 20.1117 11.4583L18.7 16.9583C18.5979 17.3539 18.3666 17.704 18.0427 17.9532C17.7189 18.2023 17.3211 18.3361 16.9125 18.3333H3.66671C3.18048 18.3333 2.71416 18.1401 2.37034 17.7963C2.02653 17.4525 1.83337 16.9862 1.83337 16.5V4.5833C1.83337 4.09707 2.02653 3.63075 2.37034 3.28694C2.71416 2.94312 3.18048 2.74997 3.66671 2.74997H7.24171C7.54832 2.74696 7.85079 2.82091 8.12143 2.96503C8.39207 3.10916 8.62224 3.31887 8.79087 3.57497L9.53337 4.67497C9.70031 4.92845 9.92756 5.13653 10.1947 5.28052C10.4619 5.42451 10.7607 5.49992 11.0642 5.49997H16.5C16.9863 5.49997 17.4526 5.69312 17.7964 6.03694C18.1402 6.38075 18.3334 6.84707 18.3334 7.3333V9.16663Z" stroke="#0EA472" stroke-width="1.83333" stroke-linecap="round" stroke-linejoin="round"/>
</svg>