<svg width="48" height="48" viewBox="0 0 48 48" fill="none" xmlns="http://www.w3.org/2000/svg">
<path d="M4 42C3.99971 39.4124 4.62703 36.8633 5.82816 34.5713C7.02928 32.2794 8.76838 30.3129 10.8963 28.8406C13.0242 27.3683 15.4775 26.4341 18.0458 26.118C20.614 25.802 23.2206 26.1135 25.642 27.026" stroke="#262F3C" stroke-width="2.5" stroke-linecap="round" stroke-linejoin="round"/>
<path d="M42.756 33.252C43.5527 32.4553 44.0002 31.3747 44.0002 30.248C44.0002 29.1213 43.5527 28.0407 42.756 27.244C41.9592 26.4473 40.8787 25.9997 39.752 25.9997C38.6252 25.9997 37.5447 26.4473 36.748 27.244L28.728 35.268C28.2524 35.7432 27.9044 36.3307 27.716 36.976L26.042 42.716C25.9918 42.8881 25.9887 43.0705 26.0332 43.2442C26.0777 43.4178 26.1681 43.5763 26.2948 43.7031C26.4216 43.8299 26.5801 43.9202 26.7538 43.9647C26.9274 44.0092 27.1099 44.0062 27.282 43.956L33.022 42.282C33.6673 42.0936 34.2547 41.7455 34.73 41.27L42.756 33.252Z" stroke="#262F3C" stroke-width="2.5" stroke-linecap="round" stroke-linejoin="round"/>
<path d="M20 26C25.5228 26 30 21.5228 30 16C30 10.4772 25.5228 6 20 6C14.4772 6 10 10.4772 10 16C10 21.5228 14.4772 26 20 26Z" stroke="#262F3C" stroke-width="2.5" stroke-linecap="round" stroke-linejoin="round"/>
</svg>